<svg width="147" height="43" viewBox="0 0 147 43" fill="none" xmlns="http://www.w3.org/2000/svg">
<path d="M78.0574 0.97432C78.2296 0.97432 78.3695 0.855237 78.3964 0.69285H77.713C77.7453 0.855237 77.8852 0.97432 78.052 0.97432" fill="#00AA8B"/>
<path d="M77.6054 0.69285H73.3923V5.21803L73.4031 5.22885L77.7076 0.89854C77.6592 0.838998 77.6162 0.768631 77.6 0.69285" fill="#00AA8B"/>
<path d="M78.5094 0.69285C78.4771 0.914779 78.2834 1.08799 78.0574 1.08799C77.9552 1.08799 77.8691 1.03386 77.7938 0.97432L73.4946 5.29922L74.4201 6.07868L76.7876 3.697C76.7499 3.63205 76.7015 3.57251 76.7015 3.49131C76.7015 3.23691 76.906 3.03122 77.1589 3.03122C77.4118 3.03122 77.6162 3.23691 77.6162 3.49131C77.6162 3.74572 77.4118 3.95141 77.1589 3.95141C77.0297 3.95141 76.9167 3.89728 76.8306 3.80526L74.5008 6.14904L77.0028 8.26007L77.3795 7.88117C77.3364 7.82163 77.2934 7.75667 77.2934 7.67548C77.2934 7.4752 77.4548 7.31282 77.6539 7.31282C77.853 7.31282 78.0144 7.4752 78.0144 7.67548C78.0144 7.87576 77.853 8.03814 77.6539 8.03814C77.5786 8.03814 77.514 7.99484 77.4602 7.95695L77.0889 8.33044L77.8207 8.95292L80.0913 6.66868C80.0268 6.58749 79.973 6.49547 79.973 6.38721C79.973 6.13281 80.1774 5.92711 80.4303 5.92711C80.6832 5.92711 80.8877 6.13281 80.8877 6.38721C80.8877 6.64162 80.6832 6.84731 80.4303 6.84731C80.3281 6.84731 80.2474 6.79859 80.172 6.73905L77.9014 9.02329L81.302 11.8975L81.3558 11.9408V0.69285H78.5094Z" fill="#00AA8B"/>
<path d="M81.338 11.8759L81.2875 11.9249L81.3362 11.9757L81.3867 11.9268L81.338 11.8759Z" fill="url(#paint0_linear_1_22148)"/>
<path d="M76.6853 10.095L75.9481 9.47797L74.5707 10.8637H73.3977V12.8394H73.9573L76.6853 10.095Z" fill="white"/>
<path d="M75.8621 9.4076L73.3923 7.31823V10.7554H74.5277L75.8621 9.4076Z" fill="white"/>
<path d="M78.1435 11.8975H78.8161L76.766 10.1654L74.0004 12.9476H73.3923V15.1128H74.9473L78.1435 11.8975Z" fill="white"/>
<path d="M78.9452 12.0058H78.1865L74.9904 15.221H73.3923V16.807H74.5869C74.6191 16.5851 74.7913 16.4011 75.0227 16.4011C75.2756 16.4011 75.48 16.6067 75.48 16.8612C75.48 17.1156 75.2756 17.3212 75.0227 17.3212C74.7913 17.3212 74.6191 17.1372 74.5869 16.9153H73.3923V17.9979H75.2541L77.8744 15.3618H80.2258C80.2581 15.194 80.3872 15.0532 80.5594 15.0532C80.7585 15.0532 80.9199 15.2156 80.9199 15.4159C80.9199 15.6162 80.7585 15.7786 80.5594 15.7786C80.3818 15.7786 80.2527 15.6433 80.2258 15.47H77.9175L75.2971 18.1061H73.387V19.9357L74.2102 19.1075H78.2403C78.2726 18.8856 78.4448 18.7015 78.6762 18.7015C78.9291 18.7015 79.1335 18.9072 79.1335 19.1616C79.1335 19.416 78.9291 19.6217 78.6762 19.6217C78.4448 19.6217 78.2726 19.4377 78.2403 19.2158H74.2586L73.387 20.0926V23.0156L74.1295 23.7626H78.1112C78.1435 23.5407 78.3157 23.3566 78.547 23.3566C78.7999 23.3566 79.0044 23.5623 79.0044 23.8167C79.0044 24.0711 78.7999 24.2768 78.547 24.2768C78.3157 24.2768 78.1435 24.0928 78.1112 23.8708H74.0811L74.0649 23.8546L73.387 23.1726V24.8776H75.168L75.1841 24.8939L77.7884 27.5137H80.0913C80.1182 27.3459 80.2527 27.2052 80.4249 27.2052C80.624 27.2052 80.7854 27.3676 80.7854 27.5679C80.7854 27.7681 80.624 27.9305 80.4249 27.9305C80.2473 27.9305 80.1182 27.7952 80.0913 27.622H77.7399L77.7238 27.6057L75.1195 24.9859H73.387V26.0685H74.4523C74.4846 25.8466 74.6568 25.6625 74.8882 25.6625C75.1411 25.6625 75.3455 25.8682 75.3455 26.1226C75.3455 26.377 75.1411 26.5827 74.8882 26.5827C74.6568 26.5827 74.4846 26.4041 74.4523 26.1767H73.387V27.7627H74.8559L74.872 27.779L78.052 30.978H81.3504V14.0302L78.9398 11.995L78.9452 12.0058Z" fill="white"/>
<path d="M73.3977 37.8902V42.3126H77.4816C77.4978 42.2368 77.5408 42.1664 77.5892 42.1069L73.4031 37.8956L73.3977 37.8902Z" fill="white"/>
<path d="M77.9982 31.0862L74.8182 27.8872H73.3977V30.0524H73.8766L73.8927 30.0686L80.0482 36.2609C80.1236 36.2068 80.2043 36.1527 80.3065 36.1527C80.5594 36.1527 80.7639 36.3584 80.7639 36.6128C80.7639 36.8672 80.5594 37.0729 80.3065 37.0729C80.0536 37.0729 79.8491 36.8672 79.8491 36.6128C79.8491 36.5045 79.903 36.4125 79.9621 36.3313L73.8282 30.166H73.3923V32.1417H74.4416L74.4577 32.158L77.331 35.0485C77.3902 35.0052 77.4494 34.9673 77.5247 34.9673C77.7238 34.9673 77.8852 35.1297 77.8852 35.3299C77.8852 35.5302 77.7238 35.6926 77.5247 35.6926C77.3256 35.6926 77.1642 35.5302 77.1642 35.3299C77.1642 35.2487 77.2019 35.1838 77.2503 35.1242L74.3985 32.2554H73.3977V35.8766L76.7015 39.2001C76.7822 39.1135 76.9005 39.054 77.0297 39.054C77.2826 39.054 77.487 39.2597 77.487 39.5141C77.487 39.7685 77.2826 39.9742 77.0297 39.9742C76.7768 39.9742 76.5723 39.7685 76.5723 39.5141C76.5723 39.4329 76.6207 39.3734 76.6584 39.3084L73.3977 36.0282V37.7387L77.6646 42.0311C77.7399 41.9715 77.826 41.9174 77.9282 41.9174C78.1596 41.9174 78.3479 42.0906 78.3802 42.3126H81.3557V31.1079H78.0143L77.9982 31.0916V31.0862Z" fill="white"/>
<path d="M81.3557 11.9408L73.3977 5.21803V0.69285H81.3557V11.9408Z" fill="#00AA8B"/>
<path d="M3.34134 32.5639L2.91089 33.8143H3.52429L3.54581 33.8414L9.02871 39.3571L10.5783 34.7995L8.35075 32.5639H3.34134Z" fill="white"/>
<path d="M4.28846 29.8088L3.87414 31.0159H5.36459C5.40226 30.7181 5.63362 30.48 5.94032 30.48C6.27392 30.48 6.54296 30.7506 6.54296 31.0862C6.54296 31.4218 6.26854 31.6925 5.94032 31.6925C5.63362 31.6925 5.40764 31.4543 5.36459 31.1566H3.82572L3.39526 32.4124H8.41543L8.43695 32.434L10.6323 34.6425L10.9282 33.7764H11.5577L7.60833 29.798H4.29384L4.28846 29.8088Z" fill="white"/>
<path d="M2.35674 35.4382L1.3667 38.3287H2.90557L6.74737 42.1881V42.3071H8.02259L8.35081 41.3436L2.4805 35.4382H2.35674Z" fill="white"/>
<path d="M2.84638 38.4748H1.31826L0 42.3072H6.60209V42.253L2.84638 38.4748Z" fill="white"/>
<path d="M2.86251 33.9659L2.40515 35.292H2.53967L8.4046 41.1867L8.97495 39.5087L3.46514 33.9659H2.86251Z" fill="white"/>
<path d="M5.94028 31.5517C6.19317 31.5517 6.39763 31.346 6.39763 31.0916C6.39763 30.8372 6.19317 30.6261 5.94028 30.6261C5.68739 30.6261 5.47754 30.8318 5.47754 31.0916C5.47754 31.3515 5.682 31.5517 5.94028 31.5517Z" fill="white"/>
<path d="M9.37847 22.8424H6.67737L7.34457 20.91L7.93107 21.5L7.95259 21.5217H13.2741C13.3171 21.8194 13.5431 22.0575 13.8498 22.0575C14.1834 22.0575 14.4524 21.7815 14.4524 21.4459C14.4524 21.1103 14.178 20.8396 13.8498 20.8396C13.5431 20.8396 13.3171 21.0778 13.2741 21.3755H8.01178L7.39838 20.7584L9.24933 15.3726H13.4463C13.4893 15.6649 13.7153 15.9085 14.022 15.9085C14.3556 15.9085 14.6246 15.6324 14.6246 15.3022C14.6246 14.9721 14.3502 14.696 14.022 14.696C13.7153 14.696 13.4893 14.9342 13.4463 15.2319H9.29776L9.85735 13.608L13.0158 10.4306H16.0613C16.0989 10.6526 16.2711 10.8312 16.5025 10.8312C16.7661 10.8312 16.976 10.6201 16.976 10.3549C16.976 10.0896 16.7661 9.87852 16.5025 9.87852C16.2711 9.87852 16.0989 10.0571 16.0613 10.2845H12.9566L9.96496 13.2941L12.0742 7.14501L13.3655 5.85133H19.2036C19.2466 6.14904 19.4726 6.38721 19.7793 6.38721C20.1129 6.38721 20.3819 6.11115 20.3819 5.77555C20.3819 5.43995 20.1129 5.16931 19.7793 5.16931C19.4726 5.16931 19.2466 5.40748 19.2036 5.70519H13.301L12.1818 6.83648L14.2803 0.7145H23.6803L28.453 14.3442H20.1183C19.5157 12.4605 19.0475 10.7879 18.7086 9.33182H18.6494C17.9929 11.8001 17.4495 13.7163 17.0352 15.0803L13.1934 26.3499H12.8436L9.40537 22.8911L9.38385 22.8695L9.37847 22.8424Z" fill="white"/>
<path d="M38.2566 42.3072H29.4269L26.6128 33.7818H12.0796L7.80735 29.3433L7.78583 29.3216H4.46057L5.32686 26.8046H8.91577L13.1181 31.0267L13.1396 31.0483H19.0422C19.0852 31.346 19.3112 31.5842 19.6179 31.5842C19.9515 31.5842 20.2206 31.3136 20.2206 30.978C20.2206 30.6424 19.9461 30.3717 19.6179 30.3717C19.3112 30.3717 19.0852 30.6099 19.0422 30.9076H13.2042L8.98034 26.6585H5.38067L6.10168 24.5583H8.44765C8.4907 24.856 8.72206 25.0942 9.02338 25.0942C9.35698 25.0942 9.62602 24.8235 9.62602 24.4879C9.62602 24.1523 9.35698 23.8763 9.02338 23.8763C8.72206 23.8763 8.4907 24.1144 8.44765 24.4121H6.1501L6.63974 22.9831H9.33008L12.7683 26.442L12.7899 26.4636H13.1504L12.8221 27.4271H24.5843L21.5334 18.4796H29.9165L38.262 42.3017L38.2566 42.3072Z" fill="white"/>
<path d="M19.774 6.21941C20.0269 6.21941 20.2314 6.01372 20.2314 5.75931C20.2314 5.50491 20.0269 5.29381 19.774 5.29381C19.5211 5.29381 19.3113 5.4995 19.3113 5.75931C19.3113 6.01913 19.5157 6.21941 19.774 6.21941Z" fill="white"/>
<path d="M14.0167 15.7569C14.2696 15.7569 14.474 15.5512 14.474 15.2968C14.474 15.0424 14.2696 14.8367 14.0167 14.8367C13.7638 14.8367 13.554 15.0424 13.554 15.2968C13.554 15.5512 13.7584 15.7569 14.0167 15.7569Z" fill="white"/>
<path d="M9.00729 24.948C9.26018 24.948 9.46465 24.7423 9.46465 24.4879C9.46465 24.2335 9.26018 24.0278 9.00729 24.0278C8.7544 24.0278 8.54456 24.2335 8.54456 24.4879C8.54456 24.7423 8.74902 24.948 9.00729 24.948Z" fill="white"/>
<path d="M19.6071 31.4435C19.86 31.4435 20.0645 31.2378 20.0645 30.9834C20.0645 30.729 19.86 30.5179 19.6071 30.5179C19.3543 30.5179 19.1444 30.7236 19.1444 30.9834C19.1444 31.2432 19.3489 31.4435 19.6071 31.4435Z" fill="white"/>
<path d="M13.8445 21.906C14.0973 21.906 14.3018 21.7003 14.3018 21.4459C14.3018 21.1915 14.0973 20.9858 13.8445 20.9858C13.5916 20.9858 13.3817 21.1915 13.3817 21.4459C13.3817 21.7003 13.5862 21.906 13.8445 21.906Z" fill="white"/>
<path d="M55.3133 20.9858C55.0604 20.9858 54.8506 21.1915 54.8506 21.4459C54.8506 21.7003 55.0551 21.906 55.3133 21.906C55.5716 21.906 55.7707 21.7003 55.7707 21.4459C55.7707 21.1915 55.5662 20.9858 55.3133 20.9858Z" fill="white"/>
<path d="M54.8774 15.2914C54.8774 15.627 55.1465 15.8977 55.4801 15.8977C55.7868 15.8977 56.0128 15.6595 56.0558 15.3618H61.3181L61.6571 15.7028L58.8753 21.3701H55.889C55.8836 21.3268 55.8729 21.2835 55.8567 21.2456C55.776 21.0128 55.5715 20.8342 55.3133 20.8342C54.9797 20.8342 54.7106 21.1049 54.7106 21.4405C54.7106 21.7761 54.985 22.0521 55.3133 22.0521C55.3778 22.0521 55.4424 22.0413 55.4962 22.0196C55.7061 21.9439 55.8513 21.749 55.8836 21.5162H58.7946L56.5616 26.0685L56.3087 26.3229H53.2632C53.2471 26.22 53.1987 26.128 53.1341 26.0522C53.0534 25.971 52.9458 25.9169 52.822 25.9169C52.5584 25.9169 52.3485 26.128 52.3485 26.3932C52.3485 26.626 52.5153 26.8209 52.7305 26.8642C52.7574 26.8696 52.7897 26.875 52.822 26.875C52.935 26.875 53.0319 26.8317 53.1072 26.7613C53.1879 26.691 53.2417 26.5881 53.2632 26.469H56.3625L55.8137 27.5841V30.9076H50.1155C50.0725 30.6153 49.8465 30.3717 49.5398 30.3717C49.2062 30.3717 48.9372 30.6478 48.9372 30.978C48.9372 31.0321 48.9425 31.0808 48.9587 31.1295C48.9748 31.2053 49.0125 31.2703 49.0502 31.3298C49.1578 31.4868 49.3407 31.5842 49.5398 31.5842C49.8465 31.5842 50.0725 31.346 50.1155 31.0483H55.8137V35.3624L53.3332 37.8578C53.2309 37.7874 53.1233 37.717 52.9888 37.717C52.6552 37.717 52.3862 37.9877 52.3862 38.3233C52.3862 38.6589 52.6606 38.9349 52.9888 38.9349C53.317 38.9349 53.5968 38.6589 53.5968 38.3233C53.5968 38.1771 53.5269 38.058 53.4408 37.9498L55.8083 35.5681V42.3017H47.8449V27.6382L45.6065 22.9669L35.6146 2.12185L34.9313 0.69285H43.6426L49.0878 12.6445C49.4483 13.4456 49.7927 14.2413 50.1263 15.037C50.7612 16.5418 51.3531 18.0412 51.8965 19.5405H52.0149C52.5906 17.9383 53.6991 15.3672 55.3348 11.8326L55.932 10.5551H56.4109L58.9721 13.202L59.7685 14.0248L59.79 14.0464H62.3835L61.7163 15.5621L61.3719 15.2156H56.0504C56.0074 14.9179 55.7814 14.6798 55.4747 14.6798C55.1411 14.6798 54.8721 14.9504 54.8721 15.286" fill="white"/>
<path d="M52.5476 38.3287C52.5476 38.5831 52.7521 38.7942 53.005 38.7942C53.2579 38.7942 53.4623 38.5885 53.4623 38.3287C53.4623 38.0689 53.2579 37.8686 53.005 37.8686C52.7521 37.8686 52.5476 38.0743 52.5476 38.3287Z" fill="white"/>
<path d="M49.556 30.5179C49.3031 30.5179 49.0933 30.7236 49.0933 30.9834C49.0933 31.2432 49.2977 31.4435 49.556 31.4435C49.8143 31.4435 50.0134 31.2378 50.0134 30.9834C50.0134 30.729 49.8089 30.5179 49.556 30.5179Z" fill="white"/>
<path d="M59.7094 12.2494C59.7094 12.585 59.9838 12.8556 60.312 12.8556C60.6187 12.8556 60.8447 12.6174 60.8877 12.3197H63.309L62.6095 13.7487H59.9999L59.0852 12.8285L56.5401 10.2683H56.072L57.5033 7.20997L59.8546 9.5754L60.3335 10.0571L60.355 10.0788H64.4121L63.3844 12.1736H60.8877C60.8501 11.8759 60.6187 11.6377 60.312 11.6377C59.9784 11.6377 59.7094 11.9138 59.7094 12.2494Z" fill="white"/>
<path d="M55.4801 14.8313C55.2272 14.8313 55.0227 15.037 55.0227 15.2968C55.0227 15.5566 55.2272 15.7569 55.4801 15.7569C55.733 15.7569 55.9374 15.5512 55.9374 15.2968C55.9374 15.0424 55.733 14.8313 55.4801 14.8313Z" fill="white"/>
<path d="M65.7841 2.8959L63.5888 0.69285H60.5541L59.5802 2.7714L60.9738 4.17334H67.3122L67.931 2.91755H65.8056L65.7841 2.8959Z" fill="white"/>
<path d="M66.7633 1.42359L66.037 0.69285H63.7932L65.8648 2.7714H68.0009L68.6573 1.44524H66.7849L66.7633 1.42359Z" fill="white"/>
<path d="M63.3897 5.18555C63.1368 5.18555 62.9324 5.39124 62.9324 5.64564C62.9324 5.90005 63.1368 6.10574 63.3897 6.10574C63.6426 6.10574 63.8471 5.90005 63.8471 5.64564C63.8471 5.39124 63.6426 5.18555 63.3897 5.18555Z" fill="white"/>
<path d="M66.2415 0.69285L66.8441 1.29909H68.7273L69.0233 0.69285H66.2415Z" fill="white"/>
<path d="M59.5157 2.91213L58.9453 4.13003L61.7217 6.92309H65.9617L66.5536 5.71601H63.9601C63.9171 6.01372 63.6911 6.25189 63.3844 6.25189C63.0508 6.25189 62.7817 5.97583 62.7817 5.64564C62.7817 5.31546 63.0508 5.03399 63.3844 5.03399C63.6911 5.03399 63.9171 5.27215 63.9601 5.56986H66.6235L67.2369 4.31407H60.9093L59.5103 2.90672L59.5157 2.91213Z" fill="white"/>
<path d="M65.8918 7.07465L64.4874 9.93265H60.4196L59.8869 9.39678L57.5732 7.06923L58.1167 5.90546L58.8807 4.27077L61.6464 7.05299L61.6626 7.07465H65.8918Z" fill="white"/>
<path d="M60.3173 11.7893C60.0645 11.7893 59.86 11.995 59.86 12.2548C59.86 12.5146 60.0645 12.7149 60.3173 12.7149C60.5702 12.7149 60.7801 12.5092 60.7801 12.2548C60.7801 12.0004 60.5756 11.7893 60.3173 11.7893Z" fill="white"/>
<path d="M103.831 14.8313C103.578 14.8313 103.374 15.037 103.374 15.2968C103.374 15.5566 103.578 15.7569 103.831 15.7569C104.084 15.7569 104.288 15.5512 104.288 15.2968C104.288 15.0424 104.084 14.8313 103.831 14.8313Z" fill="white"/>
<path d="M103.659 20.9858C103.406 20.9858 103.196 21.1915 103.196 21.4459C103.196 21.7003 103.4 21.906 103.659 21.906C103.917 21.906 104.116 21.7003 104.116 21.4459C104.116 21.1915 103.912 20.9858 103.659 20.9858Z" fill="white"/>
<path d="M98.0736 5.29381C97.8207 5.29381 97.6108 5.4995 97.6108 5.7539C97.6108 6.00831 97.8153 6.21941 98.0736 6.21941C98.3319 6.21941 98.5309 6.01372 98.5309 5.7539C98.5309 5.49408 98.3265 5.29381 98.0736 5.29381Z" fill="white"/>
<path d="M114.592 0.69285L115.195 1.29909H115.722L115.959 0.69285H114.592Z" fill="white"/>
<path d="M97.9013 30.5179C97.6484 30.5179 97.4386 30.7236 97.4386 30.9834C97.4386 31.2432 97.6431 31.4435 97.9013 31.4435C98.1596 31.4435 98.3587 31.2378 98.3587 30.9834C98.3587 30.729 98.1542 30.5179 97.9013 30.5179Z" fill="white"/>
<path d="M109.889 7.38318L109.868 7.36153L103.169 0.69285H89.642L86.532 7.52933H97.2503V42.3071H105.095C105.079 42.2584 105.074 42.2043 105.074 42.1502C105.074 41.9878 105.138 41.8362 105.246 41.728V37.0404C105.181 37.0783 105.106 37.0945 105.025 37.0945C104.762 37.0945 104.552 36.8834 104.552 36.6182C104.552 36.353 104.767 36.1419 105.025 36.1419C105.111 36.1419 105.181 36.1798 105.246 36.2231V34.4909L101.808 37.9498C101.894 38.0526 101.958 38.1771 101.958 38.3233C101.958 38.6589 101.689 38.9349 101.35 38.9349C101.011 38.9349 100.748 38.6589 100.748 38.3233C100.748 37.9877 101.022 37.717 101.35 37.717C101.485 37.717 101.592 37.7874 101.689 37.8578L105.241 34.2852V30.1769L104.374 31.0483H98.4717C98.4286 31.346 98.2027 31.5842 97.896 31.5842C97.5624 31.5842 97.2933 31.3136 97.2933 30.978C97.2933 30.6424 97.5624 30.3717 97.896 30.3717C98.2027 30.3717 98.4286 30.6099 98.4717 30.9076H104.31L105.235 29.9766V25.9494L104.719 26.469H101.614C101.576 26.691 101.404 26.875 101.167 26.875C100.904 26.875 100.694 26.6585 100.694 26.3987C100.694 26.1388 100.904 25.9223 101.167 25.9223C101.399 25.9223 101.571 26.101 101.614 26.3283H104.659L105.241 25.7491V21.5271H104.234C104.191 21.8248 103.965 22.0629 103.659 22.0629C103.325 22.0629 103.056 21.7869 103.056 21.4513C103.056 21.1157 103.33 20.845 103.659 20.845C103.965 20.845 104.191 21.0832 104.234 21.3809H105.241V15.3726H104.401C104.364 15.6703 104.132 15.9085 103.825 15.9085C103.492 15.9085 103.223 15.6324 103.223 15.3022C103.223 14.9721 103.497 14.696 103.825 14.696C104.132 14.696 104.364 14.9342 104.401 15.2319H105.241V10.842L104.832 10.4306H101.786C101.749 10.6526 101.576 10.8366 101.34 10.8366C101.076 10.8366 100.866 10.6255 100.866 10.3603C100.866 10.095 101.081 9.88394 101.34 9.88394C101.571 9.88394 101.743 10.0626 101.786 10.2899H104.891L104.912 10.3116L105.241 10.6417V7.55098H106.171L104.487 5.85133H98.6493C98.6062 6.14904 98.3802 6.38721 98.0735 6.38721C97.7399 6.38721 97.4709 6.11115 97.4709 5.77555C97.4709 5.43995 97.7453 5.16931 98.0735 5.16931C98.3802 5.16931 98.6062 5.40748 98.6493 5.70519H104.552L104.573 5.72684L106.381 7.54557H113.279L113.338 7.39942H109.895L109.889 7.38318Z" fill="white"/>
<path d="M111.94 0.69285H105.859L109.325 4.17334H114.592L115.087 2.91755H114.151L111.94 0.69285Z" fill="white"/>
<path d="M100.893 38.3287C100.893 38.5831 101.097 38.7942 101.35 38.7942C101.603 38.7942 101.813 38.5885 101.813 38.3287C101.813 38.0689 101.609 37.8686 101.35 37.8686C101.092 37.8686 100.893 38.0743 100.893 38.3287Z" fill="white"/>
<path d="M114.388 0.69285H112.144L114.21 2.7714H115.141L115.663 1.44524H115.136L114.388 0.69285Z" fill="white"/>
<path d="M111.735 5.18555C111.482 5.18555 111.278 5.39124 111.278 5.64564C111.278 5.90005 111.482 6.10574 111.735 6.10574C111.988 6.10574 112.192 5.90005 112.192 5.64564C112.192 5.39124 111.988 5.18555 111.735 5.18555Z" fill="white"/>
<path d="M105.655 0.69285H103.874L110.072 6.9285H113.511L113.984 5.72142H112.311C112.273 6.01913 112.042 6.2573 111.735 6.2573C111.401 6.2573 111.132 5.98124 111.132 5.65106C111.132 5.32087 111.407 5.0394 111.735 5.0394C112.042 5.0394 112.268 5.27757 112.311 5.57528H114.043L114.538 4.31949H109.265L105.66 0.69285H105.655Z" fill="white"/>
<path d="M121.528 41.1163L121.442 41.8904C121.856 41.9986 122.276 42.1015 122.706 42.1989L121.635 41.1217H121.528V41.1163Z" fill="white"/>
<path d="M127.807 15.9789C128.055 15.9789 128.254 15.7786 128.254 15.5296C128.254 15.2806 128.055 15.0803 127.807 15.0803C127.56 15.0803 127.361 15.2806 127.361 15.5296C127.361 15.7786 127.56 15.9789 127.807 15.9789Z" fill="white"/>
<path d="M122.19 35.2054H125.348C124.315 34.9348 123.298 34.5938 122.303 34.177L122.184 35.2054H122.19Z" fill="white"/>
<path d="M124.519 20.6718C124.353 16.8503 123.072 13.3157 120.995 10.3927C120.888 11.0748 120.839 11.7893 120.839 12.5308C120.839 15.8056 122.066 18.5229 124.519 20.6772" fill="white"/>
<path d="M135.222 2.02983C135.222 1.78084 135.023 1.58056 134.775 1.58056C134.528 1.58056 134.328 1.78084 134.328 2.02983C134.328 2.27883 134.528 2.4791 134.775 2.4791C135.023 2.4791 135.222 2.27883 135.222 2.02983Z" fill="white"/>
<path d="M130.546 14.5444C129.771 13.7487 129.362 12.8502 129.314 11.8542L127.764 13.4131H123.772C124.062 14.0789 124.331 14.7555 124.552 15.4592H127.248C127.285 15.1723 127.511 14.9396 127.807 14.9396C128.13 14.9396 128.399 15.2048 128.399 15.535C128.399 15.8652 128.135 16.1304 127.807 16.1304C127.511 16.1304 127.285 15.8977 127.248 15.6054H124.595C124.735 16.06 124.842 16.531 124.95 16.9965H128.108L130.546 14.5444Z" fill="white"/>
<path d="M124.912 3.49131C123.976 4.27077 123.196 5.14224 122.583 6.10033L125.951 2.71186C125.59 2.95544 125.241 3.21526 124.912 3.49131Z" fill="white"/>
<path d="M126.435 10.3386L134.334 2.3925C134.253 2.28965 134.183 2.17057 134.183 2.02983C134.183 1.70506 134.447 1.43442 134.775 1.43442C135.103 1.43442 135.367 1.69965 135.367 2.02983C135.367 2.36002 135.103 2.62525 134.775 2.62525C134.646 2.62525 134.544 2.5603 134.441 2.48452L126.489 10.4848H122.184C122.76 11.3671 123.266 12.3035 123.702 13.2724H127.705L129.308 11.6594C129.308 8.32502 131.574 6.65785 136.104 6.65785C138.461 6.65785 140.193 6.77153 143.228 7.83245L143.944 0.817347C141.431 0.276058 138.934 0.00541306 136.459 0.00541306C132.424 0.00541306 129.098 0.795695 126.494 2.37085L122.453 6.43593H122.378C122.147 6.83107 121.942 7.23703 121.765 7.65924H127.167L130.842 3.96224C130.783 3.88646 130.734 3.79985 130.734 3.697C130.734 3.43719 130.944 3.2315 131.197 3.2315C131.45 3.2315 131.66 3.4426 131.66 3.697C131.66 3.95141 131.455 4.16251 131.197 4.16251C131.1 4.16251 131.019 4.10838 130.944 4.05967L127.226 7.79997H121.705C121.544 8.19512 121.404 8.60108 121.291 9.02329H124.25C124.288 8.7364 124.514 8.49824 124.81 8.49824C125.133 8.49824 125.402 8.76347 125.402 9.09365C125.402 9.42384 125.138 9.68366 124.81 9.68366C124.514 9.68366 124.288 9.45091 124.25 9.16402H121.248C121.248 9.16402 121.248 9.16944 121.248 9.17485C121.544 9.55375 121.835 9.93807 122.104 10.3386H126.435Z" fill="white"/>
<path d="M124.81 9.54293C125.058 9.54293 125.257 9.34265 125.257 9.09366C125.257 8.84466 125.058 8.64439 124.81 8.64439C124.563 8.64439 124.364 8.84466 124.364 9.09366C124.364 9.34265 124.563 9.54293 124.81 9.54293Z" fill="white"/>
<path d="M131.703 24.5745C131.741 24.5908 131.773 24.607 131.811 24.6178C131.811 24.6016 131.806 24.5908 131.8 24.5745H131.703Z" fill="white"/>
<path d="M132.806 24.5042C132.806 24.2552 132.607 24.0549 132.359 24.0549C132.112 24.0549 131.913 24.2552 131.913 24.5042C131.913 24.5691 131.923 24.6232 131.95 24.6774C132.149 24.764 132.343 24.8452 132.526 24.9209C132.693 24.856 132.811 24.6936 132.811 24.4987" fill="white"/>
<path d="M137.444 33.6086C137.417 33.6519 137.39 33.6898 137.358 33.7277H137.412C137.417 33.6844 137.428 33.6465 137.439 33.6086" fill="white"/>
<path d="M137.977 34.2528C138.224 34.2528 138.423 34.0525 138.423 33.8035C138.423 33.5545 138.224 33.3542 137.977 33.3542C137.729 33.3542 137.53 33.5545 137.53 33.8035C137.53 34.0525 137.729 34.2528 137.977 34.2528Z" fill="white"/>
<path d="M132.526 18.9505C132.773 18.9505 132.973 18.7503 132.973 18.5013C132.973 18.2523 132.773 18.052 132.526 18.052C132.278 18.052 132.079 18.2523 132.079 18.5013C132.079 18.7503 132.278 18.9505 132.526 18.9505Z" fill="white"/>
<path d="M122.023 36.7156L121.824 38.5019L126.032 42.7348C126.801 42.8214 127.597 42.8863 128.415 42.935L122.233 36.7156H122.023Z" fill="white"/>
<path d="M134.614 41.4248C134.861 41.4248 135.06 41.2246 135.06 40.9756C135.06 40.7266 134.861 40.5263 134.614 40.5263C134.366 40.5263 134.167 40.7266 134.167 40.9756C134.167 41.2246 134.366 41.4248 134.614 41.4248Z" fill="white"/>
<path d="M121.544 40.9702H121.689L121.711 40.9918L122.959 42.2476C123.869 42.4371 124.816 42.594 125.806 42.7077L121.802 38.6805L121.544 40.9702Z" fill="white"/>
<path d="M138.17 18.4309C134.495 16.8666 132.461 15.9626 132.063 15.719C131.504 15.3834 131.036 15.0262 130.648 14.6419L128.168 17.1372H124.988C125.181 18.0087 125.316 18.9018 125.391 19.8166L126.769 18.4309H131.961C131.999 18.144 132.225 17.9113 132.521 17.9113C132.843 17.9113 133.112 18.1765 133.112 18.5067C133.112 18.8369 132.849 19.1021 132.521 19.1021C132.225 19.1021 131.999 18.8693 131.961 18.5825H126.828L125.402 20.0169C125.44 20.4932 125.477 20.9695 125.477 21.4513C126.623 22.2903 127.979 23.0318 129.545 23.676C130.202 23.952 130.81 24.2064 131.358 24.4392H131.794C131.832 24.1523 132.058 23.9196 132.354 23.9196C132.677 23.9196 132.946 24.1848 132.946 24.515C132.946 24.7207 132.843 24.8993 132.687 25.0076C134.275 25.6896 135.222 26.1172 135.534 26.3012C137.347 27.4055 138.256 28.8236 138.256 30.5449C138.256 31.66 138.036 32.6073 137.595 33.3759C137.691 33.2785 137.826 33.2189 137.977 33.2189C138.299 33.2189 138.568 33.4841 138.568 33.8143C138.568 34.1445 138.305 34.4097 137.977 34.4097C137.681 34.4097 137.455 34.177 137.417 33.8901H137.256C136.163 35.2758 134.183 35.9687 131.315 35.9687C130.767 35.9687 130.228 35.9524 129.69 35.9145L134.28 40.5317C134.377 40.4614 134.485 40.391 134.614 40.391C134.942 40.391 135.206 40.6562 135.206 40.9864C135.206 41.3166 134.942 41.5818 134.614 41.5818C134.285 41.5818 134.022 41.3166 134.022 40.9864C134.022 40.8457 134.086 40.7266 134.172 40.6237L129.481 35.9037C128.819 35.855 128.162 35.7792 127.517 35.6764L130.788 38.9674C130.863 38.9133 130.944 38.8646 131.041 38.8646C131.299 38.8646 131.504 39.0757 131.504 39.3301C131.504 39.5845 131.299 39.7956 131.041 39.7956C130.783 39.7956 130.578 39.5845 130.578 39.3301C130.578 39.2272 130.632 39.1406 130.686 39.0648L127.28 35.6385C126.828 35.5627 126.381 35.4707 125.94 35.3678H122.184L122.044 36.5911H122.297L122.319 36.6128L128.63 42.9621C129.405 43 130.202 43.0217 131.025 43.0217C135.754 43.0217 139.618 41.7388 142.609 39.1677C145.542 36.6561 147.011 33.4571 147.011 29.5652C147.011 24.6882 144.068 20.9804 138.181 18.4525" fill="white"/>
<g style="mix-blend-mode:multiply">
<mask id="mask0_1_22148" style="mask-type:luminance" maskUnits="userSpaceOnUse" x="22" y="27" width="8" height="7">
<path d="M29.0234 27.4325H22.0554V33.7927H29.0234V27.4325Z" fill="white"/>
</mask>
<g mask="url(#mask0_1_22148)">
<mask id="mask1_1_22148" style="mask-type:luminance" maskUnits="userSpaceOnUse" x="22" y="27" width="8" height="7">
<path d="M29.0234 27.4325H22.0554V33.7927H29.0234V27.4325Z" fill="white"/>
</mask>
<g mask="url(#mask1_1_22148)">
<path d="M29.0234 27.4325H22.0554V33.7927H29.0234V27.4325Z" fill="url(#paint1_linear_1_22148)"/>
</g>
</g>
</g>
<path d="M24.5735 27.4325L21.5227 18.485H29.9058L38.2512 42.3072H29.4215L26.6074 33.7873L24.5735 27.4325Z" fill="#00AA8B"/>
<defs>
<linearGradient id="paint0_linear_1_22148" x1="81.6096" y1="-11.7506" x2="81.6359" y2="-11.7234" gradientUnits="userSpaceOnUse">
<stop stop-color="#4CC0BC"/>
<stop offset="0.51" stop-color="#44A5D3"/>
<stop offset="0.97" stop-color="#B44A9A"/>
<stop offset="1" stop-color="#BB4598"/>
</linearGradient>
<linearGradient id="paint1_linear_1_22148" x1="22.1525" y1="29.9725" x2="29.1205" y2="29.9725" gradientUnits="userSpaceOnUse">
<stop stop-color="#231F20" stop-opacity="0"/>
<stop offset="1" stop-color="#231F20"/>
</linearGradient>
</defs>
</svg>
